:SAMPLES-PER-SECOND 30
:FULLY-SPECIFIED
:DEGREES
917
root  -63.4988 39.784 15.9029 -3.77588 -47.5464 -0.703552
RightUpLeg  -7.97874 9.54788 -4.65137
RightLeg  17.6627 21.9737 5.83663
RightFoot  -13.85 0.171424 11.5973
RightToes  -2.32831e-009 0 -3.6325e-017
Spine  17.4404 2.9587 6.74842
Spine1  7.90208 5.63877 -5.89936
HEad  -37.9285 -37.8867 22.3994
LeftShoulder1  -0.518097 4.95109 -29.596
LeftArm  1.5182 11.1471 -40.7272
LeftForeArm  149.528 -80.2138 -117.996
LeftHand  -0.130539 7.4048 -4.74289
RightShoulder  -0.590086 -5.37778 24.7681
RightArm  -3.86949 -4.46107 12.7542
RightForeArm  42.1766 58.8404 14.7693
RightHand  0.321331 5.30811 3.17529
LeftUpLeg  -12.4462 -16.6136 -3.48793
LeftLeg  21.8812 -13.57 -5.58492
LeftFoot  -5.53288 -0.154751 4.28323
LeftToes  8.91272e-011 -1.70619e-011 7.36378e-012
918
root  -63.6308 39.738 16.1279 -4.09374 -52.588 -1.04364
RightUpLeg  -7.43838 10.0255 -4.70027
RightLeg  17.2777 25.9611 7.3952
RightFoot  -16.7436 0.635395 15.8459
RightToes  -2.32831e-009 0 -3.6325e-017
Spine  16.056 3.1474 3.85438
Spine1  8.4417 4.85696 -3.84659
HEad  -35.2323 -35.3578 20.3123
LeftShoulder1  -0.702382 5.41758 -30.5553
LeftArm  0.774761 11.5016 -39.3789
LeftForeArm  147.466 -80.4938 -115.017
LeftHand  -0.158295 7.70362 -5.39841
RightShoulder  -0.616432 -5.45172 24.926
RightArm  -6.1164 -2.85825 16.1731
RightForeArm  41.1523 58.8877 14.904
RightHand  0.213405 5.6901 1.89484
LeftUpLeg  -11.4795 -18.7688 -3.75682
LeftLeg  22.3291 -5.77251 -2.26977
LeftFoot  -4.37476 -0.400831 7.09153
LeftToes  8.91272e-011 -1.70619e-011 7.36378e-012
919
root  -63.8264 39.7052 16.2448 -4.73523 -57.0215 -0.96463
RightUpLeg  -7.11407 9.35921 -4.80599
RightLeg  17.5795 29.6277 8.9626
RightFoot  -18.9875 1.09787 18.2654
RightToes  -2.32831e-009 0 -3.6325e-017
Spine  15.2429 3.38203 0.360886
Spine1  8.10916 4.00468 -1.51301
HEad  -32.2951 -33.0168 18.438
LeftShoulder1  -0.71096 5.42916 -30.7417
LeftArm  -0.118517 11.8781 -38.4051
LeftForeArm  140.657 -81.0177 -107.168
LeftHand  -0.0908177 6.55926 -4.87398
RightShoulder  -0.609213 -5.40653 25.2675
RightArm  -6.48446 -2.80509 19.9615
RightForeArm  39.885 58.8242 14.9821
RightHand  0.104365 5.18656 0.851301
LeftUpLeg  -10.5691 -14.1705 -3.43302
LeftLeg  22.8707 -5.89123 -2.38666
LeftFoot  -4.79319 -0.395461 7.3694
LeftToes  8.91272e-011 -1.70619e-011 7.36378e-012
920
root  -63.9733 39.69 16.3285 -5.82391 -60.7895 -0.194885
RightUpLeg  -7.28836 7.97881 -5.53939
RightLeg  18.229 29.5823 9.66498
RightFoot  -20.0534 1.31439 18.9627
RightToes  -2.32831e-009 0 -3.6325e-017
Spine  14.0204 3.39311 -1.69843
Spine1  8.59951 3.6463 -0.96863
HEad  -30.5448 -31.5512 18.1425
LeftShoulder1  -0.550937 5.04278 -29.6442
LeftArm  -0.66327 10.9806 -38.516
LeftForeArm  136.443 -81.3513 -100.762
LeftHand  -0.109519 6.84493 -5.23961
RightShoulder  -0.786297 -5.84697 26.8951
RightArm  -6.47444 -4.12699 23.628
RightForeArm  40.2437 58.5538 14.7663
RightHand  0.264415 5.40775 2.5529
LeftUpLeg  -9.63282 -8.07266 -2.89587
LeftLeg  22.8232 -8.76193 -3.69406
LeftFoot  -5.72471 -0.255249 5.92609
LeftToes  8.91272e-011 -1.70619e-011 7.36378e-012
921
root  -64.1207 39.7841 16.4781 -7.61948 -65.3542 0.674164
RightUpLeg  -6.66245 6.92796 -6.02066
RightLeg  17.3664 21.5433 6.95783
RightFoot  -18.2058 0.92274 17.0735
RightToes  -2.32831e-009 0 -3.6325e-017
Spine  12.8281 3.44159 -2.21147
Spine1  9.75562 3.93521 -2.0709
HEad  -29.4118 -28.9693 17.3685
LeftShoulder1  -0.477804 4.84419 -29.4744
LeftArm  -1.17442 10.473 -38.0457
LeftForeArm  135.454 -81.4652 -98.3229
LeftHand  -0.136437 7.46442 -4.93898
RightShoulder  -0.95001 -6.21232 28.5426
RightArm  -5.68728 -5.80235 27.5359
RightForeArm  37.2242 55.9403 13.443
RightHand  0.0710624 5.93626 0.384026
LeftUpLeg  -7.30186 -3.91099 -2.88931
LeftLeg  21.6426 -8.10024 -3.17205
LeftFoot  -6.03453 -0.248001 6.12895
LeftToes  8.91272e-011 -1.70619e-011 7.36378e-012
922
root  -64.2304 39.9655 16.6744 -8.25305 -70.0531 1.40466
RightUpLeg  -7.25805 3.27753 -6.55076
RightLeg  16.8738 8.72996 2.72893
RightFoot  -14.2978 0.203792 11.3808
RightToes  -2.32831e-009 0 -3.6325e-017
Spine  11.6302 3.25832 -2.51636
Spine1  9.16089 3.89809 -2.78299
HEad  -27.1171 -26.1606 15.4973
LeftShoulder1  -0.635683 5.25896 -30.059
LeftArm  -1.89598 10.5555 -36.9046
LeftForeArm  132.16 -81.4816 -95.7598
LeftHand  -0.114186 7.08638 -4.74589
RightShoulder  -0.972733 -6.24042 28.9685
RightArm  -4.12556 -7.99876 32.3056
RightForeArm  34.4018 50.6959 11.0662
RightHand  0.138198 6.47763 0.991445
LeftUpLeg  -5.66249 -1.24615 -2.79721
LeftLeg  19.3297 -6.34392 -1.9363
LeftFoot  -5.58916 -0.273065 6.10267
LeftToes  8.91272e-011 -1.70619e-011 7.36378e-012
923
root  -64.3724 40.1412 16.8466 -8.20821 -74.2168 1.29211
RightUpLeg  -7.24116 -3.53645 -6.79229
RightLeg  16.8849 -2.0683 -0.938111
RightFoot  -12.251 -0.0483731 5.84173
RightToes  -2.32831e-009 0 -3.6325e-017
Spine  10.18 3.08004 -2.80587
Spine1  9.08098 3.65965 -2.47642
HEad  -25.0028 -23.3636 13.6526
LeftShoulder1  -0.785463 5.65249 -30.386
LeftArm  -3.19215 11.6509 -36.9286
LeftForeArm  137.31 -81.3653 -101.043
LeftHand  -0.102127 6.73583 -5.06576
RightShoulder  -1.1164 -6.57138 29.8792
RightArm  -0.910131 -8.87306 35.5341
RightForeArm  28.1625 41.9841 8.23413
RightHand  0.189611 7.78776 1.30298
LeftUpLeg  -4.07153 1.38606 -2.28348
LeftLeg  17.4239 -5.15197 -1.18165
LeftFoot  -5.34932 -0.275492 5.87406
LeftToes  8.91272e-011 -1.70619e-011 7.36378e-012
